REM MD5 463e8c0f9ab2ef0cbafac1fbf513801b
FILE "Independence Day - The Game (Europe) (En,Fr,De,Es,It,Sv).bin" BINARY
  TRACK 01 MODE2/2352
    INDEX 01 00:00:00
  TRACK 02 AUDIO
    INDEX 00 22:13:11
    INDEX 01 22:15:11
  TRACK 03 AUDIO
    INDEX 00 33:09:33
    INDEX 01 33:11:33
REM LEADOUT 45:25:33
